<?xml version="1.0" encoding="UTF-8"?>
<svg width="304px" height="294px" viewBox="0 0 304 294" version="1.1" xmlns="http://www.w3.org/2000/svg" xmlns:xlink="http://www.w3.org/1999/xlink">
    <title>gumroad-1</title>
    <g id="Page-1" stroke="none" stroke-width="1" fill="none" fill-rule="evenodd">
        <g id="gumroad-1" transform="translate(1.000000, 1.000000)" fill-rule="nonzero">
            <path d="M151.141,292.186 C234.185,292.186 301.987,227.131 301.987,146.295 C301.987,65.46 234.185,0.404 151.141,0.404 C68.098,0.404 0.295,65.46 0.295,146.295 C0.295,227.131 68.098,292.186 151.141,292.186 Z" id="Path" stroke="#000000" stroke-width="1.563" fill="#FF90E8"></path>
            <path d="M139.795,219.898 C97.578,219.898 72.745,185.788 72.745,143.358 C72.745,99.263 100.061,63.489 152.21,63.489 C206.016,63.489 224.226,100.096 225.054,120.894 L186.149,120.894 C185.322,109.247 175.388,91.776 151.383,91.776 C125.723,91.776 109.167,114.239 109.167,141.694 C109.167,169.149 125.723,191.611 151.383,191.611 C174.561,191.611 184.494,173.308 188.633,155.006 L151.383,155.006 L151.383,140.03 L229.545,140.03 L229.545,216.57 L195.255,216.57 L195.255,168.316 C192.771,185.788 182.01,219.898 139.795,219.898 L139.795,219.898 Z" id="Path" fill="#000000"></path>
        </g>
    </g>
</svg>
