<?xml version="1.0" encoding="UTF-8"?>
<svg width="42px" height="42px" viewBox="0 0 42 42" version="1.1" xmlns="http://www.w3.org/2000/svg" xmlns:xlink="http://www.w3.org/1999/xlink">
    <title>Artboard</title>
    <g id="Artboard" stroke="none" stroke-width="1" fill="none" fill-rule="evenodd">
        <circle id="Oval" fill="#5423E7" cx="21" cy="21" r="21"></circle>
        <g id="Group" transform="translate(13.000000, 7.000000)" fill="#FFC233">
            <path d="M6.92836037,17.1856 L14.4397004,20.6583 C15.3706004,21.0889 16.0278004,21.8116 16.3827004,22.6406 C17.2803004,24.7399 16.0535004,26.8869 14.1276004,27.6591 C12.2015004,28.4309 10.1486004,27.9342 9.21523037,25.7511 L5.94631037,18.0866 C5.69300037,17.4925 6.32934037,16.9087 6.92836037,17.1856" id="Path"></path>
            <path d="M7.37953037,14.9376 L15.1331004,12.0066 C17.7100004,11.0325 20.5249004,12.8756 20.4870004,15.5536 C20.4864004,15.5886 20.4858004,15.6235 20.4849004,15.6588 C20.4292004,18.2666 17.6926004,20.0194 15.1723004,19.0968 L7.38687037,16.2473 C6.76582037,16.0201 6.76123037,15.1713 7.37953037,14.9376" id="Path"></path>
            <path d="M6.94490037,13.9224 L14.5670004,10.6837 C17.0998004,9.60736002 17.7426004,6.37695002 15.7589004,4.51043002 C15.7329004,4.48585002 15.7069004,4.46156002 15.6806004,4.43728002 C13.7357004,2.63207002 10.5207004,3.26767002 9.41349037,5.64539002 L5.99314037,12.9915 C5.72024037,13.5773 6.33701037,14.1806 6.94490037,13.9224" id="Path"></path>
            <path d="M4.98349037,12.6426 L7.75465037,5.04415002 C8.09822037,4.10200002 8.03458037,3.14120002 7.67939037,2.31220002 C6.77994037,0.213780015 4.34409037,-0.463578985 2.41853037,0.309741015 C0.493284371,1.08336002 -0.594620629,2.84029002 0.340622371,5.02253002 L3.63095037,12.6787 C3.88610037,13.272 4.76261037,13.2486 4.98349037,12.6426" id="Path"></path>
        </g>
    </g>
</svg>